<svg width="398" height="361" viewBox="0 0 398 361" fill="none" xmlns="http://www.w3.org/2000/svg">
<path d="M0.5662 365.448C0.513457 365.687 -0.448183 370.229 0.273968 375.714H1.55149C0.801118 370.332 1.79011 365.813 1.79011 365.813L2.04243 364.665V185.694L1.79011 184.546C1.79011 184.546 0.251728 177.546 2.45239 170.595C3.37867 167.669 4.97865 164.825 7.83561 162.505C11.2764 159.711 17.2267 157.134 27.5221 157.134H35.2514L35.2497 148.129C35.2497 148.129 35.2474 131.461 41.9481 114.595C45.5397 105.555 50.9064 96.9569 58.9384 90.9767C65.6454 85.9828 74.6225 82.5 86.8281 82.5H96.5815L94.3447 71.4016C94.3447 71.4016 92.743 63.4545 95.338 55.509C96.4604 52.0734 98.3737 48.7332 101.717 46.047C105.639 42.8968 112.197 40.1216 123.206 40.1216C136.177 40.1216 153.115 37.6291 165.595 31.982C178.426 26.1763 186.622 17.2117 186.622 17.2117C186.622 17.2117 195.557 8.7257 198.508 2.9375C201.458 8.72503 205.158 13.8595 209.564 18.3209C224.833 33.782 247.501 40.1213 273.807 40.1213C284.816 40.1213 291.375 42.8965 295.297 46.0467C298.641 48.7328 300.554 52.0734 301.676 55.509C304.272 63.4542 302.67 71.4013 302.67 71.4013L300.434 82.4997H310.187C322.391 82.4997 331.366 85.9821 338.072 90.9753C346.104 96.9556 351.47 105.554 355.062 114.595C361.762 131.461 361.76 148.129 361.76 148.129L361.758 157.134H369.488C379.784 157.134 385.736 159.711 389.178 162.506C392.036 164.826 393.635 167.67 394.562 170.596C396.763 177.547 395.225 184.546 395.225 184.546L394.973 185.694V365.706L395.225 366.854C395.225 366.854 396.214 371.374 395.464 376.755H396.741C397.464 371.27 396.502 366.728 396.449 366.489L396.237 365.52V185.88L396.449 184.911C396.516 184.607 398.058 177.384 395.748 170.087C394.589 166.427 392.676 163.552 389.901 161.298C385.296 157.558 378.428 155.662 369.489 155.662H363.023L363.023 148.13C363.023 147.436 362.949 130.942 356.209 113.976C352 103.382 346.127 95.2255 338.753 89.7353C330.994 83.9574 321.382 81.028 310.188 81.028H302.029L303.901 71.7385C303.97 71.396 305.56 63.2575 302.858 54.9858C301.471 50.7403 299.233 47.4203 296.015 44.8352C290.905 40.7309 283.433 38.6497 273.808 38.6497C245.778 38.6497 224.442 31.4363 210.393 17.21C206.087 12.8499 202.454 7.79521 199.595 2.18573L198.509 0.0546875L197.422 2.18573C194.563 7.79554 190.929 12.8509 186.622 17.2117C171.403 33.8907 154.575 38.6497 123.207 38.6497C113.582 38.6497 106.11 40.7309 101.001 44.8352C97.7827 47.42 95.5444 50.7403 94.1576 54.9858C91.4555 63.2572 93.046 71.396 93.1148 71.7381L94.9873 81.028H86.8284C75.6317 81.028 66.0191 83.958 58.2585 89.7363C50.8844 95.2268 45.0117 103.383 40.802 113.977C34.0614 130.942 33.9864 147.436 33.9864 148.13L33.9876 155.662H27.5221C18.5841 155.662 11.7175 157.558 7.11289 161.297C4.33804 163.551 2.42561 166.426 1.26697 170.086C-1.04346 177.383 0.499202 184.607 0.5662 184.911L0.778874 185.879V364.479L0.5662 365.448Z" fill="url(#paint0_linear_8654_1643)"/>
<path d="M396.449 365.448C396.502 365.687 397.464 370.229 396.742 375.714H395.464C396.215 370.332 395.226 365.813 395.226 365.813L394.973 364.665V185.694L395.226 184.546C395.226 184.546 396.764 177.546 394.563 170.595C393.637 167.669 392.037 164.825 389.18 162.505C385.739 159.711 379.789 157.134 369.493 157.134H361.764L361.766 148.129C361.766 148.129 361.768 131.461 355.068 114.595C351.476 105.555 346.109 96.9569 338.077 90.9767C331.37 85.9828 322.393 82.5 310.188 82.5H300.434L302.671 71.4016C302.671 71.4016 304.273 63.4545 301.678 55.509C300.555 52.0734 298.642 48.7332 295.298 46.047C291.376 42.8968 284.818 40.1216 273.809 40.1216C260.733 40.1216 243.202 36.9816 230.672 31.2879C217.994 25.527 210.394 17.2117 210.394 17.2117C210.394 17.2117 201.458 8.7257 198.508 2.9375C195.558 8.72503 191.858 13.8595 187.452 18.3209C172.183 33.782 149.515 40.1213 123.208 40.1213C112.199 40.1213 105.641 42.8965 101.719 46.0467C98.3748 48.7328 96.4612 52.0734 95.3394 55.509C92.7439 63.4542 94.3452 71.4013 94.3452 71.4013L96.5818 82.4997H86.8286C74.6251 82.4997 65.6496 85.9821 58.9436 90.9753C50.9121 96.9556 45.5454 105.554 41.9535 114.595C35.2531 131.461 35.256 148.129 35.256 148.129L35.258 157.134H27.5278C17.2313 157.134 11.2795 159.711 7.83786 162.506C4.98004 164.826 3.38037 167.67 2.45325 170.596C0.252289 177.547 1.79068 184.546 1.79068 184.546L2.04276 185.694V365.706L1.79068 366.854C1.79068 366.854 0.801697 371.374 1.55206 376.755H0.274536C-0.447906 371.27 0.513458 366.728 0.566193 366.489L0.77887 365.52V185.88L0.566193 184.911C0.499207 184.607 -1.0426 177.384 1.26785 170.087C2.42703 166.427 4.33972 163.552 7.11487 161.298C11.7201 157.558 18.588 155.662 27.527 155.662H33.993L33.9921 148.13C33.9921 147.436 34.0668 130.942 40.8062 113.976C45.0154 103.382 50.8884 95.2255 58.2622 89.7353C66.0219 83.9574 75.6335 81.028 86.8281 81.028H94.987L93.1145 71.7385C93.0457 71.396 91.4555 63.2575 94.1579 54.9858C95.5443 50.7403 97.7827 47.4203 101.001 44.8352C106.111 40.7309 113.582 38.6497 123.208 38.6497C151.238 38.6497 172.573 31.4363 186.623 17.21C190.929 12.8499 194.562 7.79521 197.42 2.18573L198.507 0.0546875L199.593 2.18573C202.453 7.79554 206.087 12.8509 210.394 17.2117C216.971 25.3883 224.771 28.6082 232.905 32.329C243.804 37.3146 257.211 38.4086 273.809 38.6497C283.434 38.6497 290.906 40.7309 296.015 44.8352C299.233 47.42 301.471 50.7403 302.858 54.9858C305.56 63.2572 303.97 71.396 303.901 71.7381L302.028 81.028H310.187C321.384 81.028 330.997 83.958 338.757 89.7363C346.131 95.2268 352.004 103.383 356.214 113.977C362.954 130.942 363.029 147.436 363.029 148.13L363.028 155.662H369.493C378.432 155.662 385.298 157.558 389.903 161.297C392.678 163.551 394.59 166.426 395.749 170.086C398.059 177.383 396.516 184.607 396.449 184.911L396.237 185.879V364.479L396.449 365.448Z" fill="url(#paint1_linear_8654_1643)"/>
<defs>
<linearGradient id="paint0_linear_8654_1643" x1="-8.73474e-05" y1="215.647" x2="397.015" y2="215.647" gradientUnits="userSpaceOnUse">
<stop offset="0.3162" stop-color="#D99A26"/>
<stop offset="0.3241" stop-color="#D59625"/>
<stop offset="0.3766" stop-color="#BC8221"/>
<stop offset="0.4246" stop-color="#AC751F"/>
<stop offset="0.4632" stop-color="#A7711E"/>
<stop offset="0.6691" stop-color="#D99A26"/>
</linearGradient>
<linearGradient id="paint1_linear_8654_1643" x1="397.016" y1="215.647" x2="0.000440498" y2="215.647" gradientUnits="userSpaceOnUse">
<stop offset="0.3162" stop-color="#D99A26"/>
<stop offset="0.3241" stop-color="#D59625"/>
<stop offset="0.3766" stop-color="#BC8221"/>
<stop offset="0.4246" stop-color="#AC751F"/>
<stop offset="0.4632" stop-color="#A7711E"/>
<stop offset="0.6691" stop-color="#D99A26"/>
</linearGradient>
</defs>
</svg>
